<svg width="14" height="14" viewBox="0 0 14 14" fill="none" xmlns="http://www.w3.org/2000/svg">
<path d="M0.0599999 13.39H3.06V4.39H0.0599999V13.39Z" fill="#E6692E"/>
<path d="M0.456913 2.67309C0.74947 2.96564 1.14626 3.13 1.56 3.13C1.7797 3.15492 2.00218 3.13315 2.21287 3.06612C2.42357 2.99909 2.61774 2.88831 2.78266 2.74104C2.94757 2.59377 3.07953 2.41332 3.16987 2.21152C3.26022 2.00971 3.30692 1.7911 3.30692 1.57C3.30692 1.3489 3.26022 1.13029 3.16987 0.928482C3.07953 0.726678 2.94757 0.546234 2.78266 0.398962C2.61774 0.25169 2.42357 0.140913 2.21287 0.0738835C2.00218 0.00685421 1.7797 -0.0149153 1.56 0.0100002C1.14626 0.0100002 0.74947 0.174357 0.456913 0.466914C0.164356 0.75947 0 1.15626 0 1.57C0 1.98374 0.164356 2.38053 0.456913 2.67309Z" fill="#E6692E"/>
<path d="M10.88 13.39H13.88V8.21C13.88 5.44 12.43 4.15 10.43 4.15C9.88457 4.12985 9.34397 4.25888 8.86644 4.5232C8.38891 4.78752 7.99253 5.17711 7.72 5.65V4.38H4.72V13.38H7.72V8.38C7.70784 8.13257 7.74174 7.88504 7.82 7.65C7.93448 7.33267 8.14348 7.05806 8.41884 6.86317C8.69419 6.66828 9.02266 6.56247 9.36 6.56C10.45 6.56 10.88 7.35 10.88 8.56V13.39Z" fill="#E6692E"/>
</svg>
